<?xml version="1.0" standalone="no"?>
<!DOCTYPE svg PUBLIC "-//W3C//DTD SVG 20010904//EN"
 "http://www.w3.org/TR/2001/REC-SVG-20010904/DTD/svg10.dtd">
<svg version="1.0" xmlns="http://www.w3.org/2000/svg"
 width="16.000000pt" height="16.000000pt" viewBox="0 0 16.000000 16.000000"
 preserveAspectRatio="xMidYMid meet">
<metadata>
Created by potrace 1.11, written by Peter Selinger 2001-2013
</metadata>
<g transform="translate(0.000000,16.000000) scale(0.003855,-0.003855)"
fill="#000000" stroke="none">
<path d="M3430 3919 c-212 -43 -396 -80 -410 -82 -14 -3 -142 -28 -285 -57
-143 -28 -271 -54 -285 -56 -14 -3 -59 -12 -100 -21 -41 -8 -86 -17 -100 -20
-14 -2 -90 -17 -170 -33 -80 -16 -156 -31 -170 -34 -78 -15 -188 -37 -205 -40
-38 -8 -330 -66 -355 -71 -14 -2 -169 -33 -345 -69 -370 -74 -629 -126 -665
-132 -120 -22 -231 -48 -260 -63 -21 -11 -45 -35 -59 -61 -23 -41 -24 -47 -13
-114 6 -39 14 -82 17 -96 27 -134 55 -282 60 -310 3 -19 14 -50 24 -69 l17
-35 -40 -20 c-22 -12 -49 -34 -60 -49 -21 -28 -21 -34 -21 -1127 0 -1094 0
-1099 21 -1126 11 -15 33 -37 48 -48 l27 -21 1966 -3 1966 -2 42 21 c81 41 75
-58 75 1182 l0 1105 -27 33 c-53 63 70 59 -1820 60 l-1728 0 140 29 c77 16
151 31 165 34 14 2 36 7 50 10 14 3 36 8 50 10 14 2 59 11 100 19 41 9 86 18
100 21 14 2 50 10 80 16 30 6 66 13 80 15 14 2 93 18 175 35 83 17 159 32 170
34 48 9 182 36 205 41 14 3 37 7 53 10 15 3 59 12 97 20 38 8 82 17 97 20 26
5 44 8 103 20 14 2 36 7 50 9 14 3 36 7 50 10 28 7 122 25 160 32 14 2 36 7
50 10 14 3 36 8 50 10 14 3 81 16 150 30 69 14 132 27 140 28 25 5 95 19 100
21 3 0 28 5 55 10 28 4 55 10 60 11 6 2 26 6 45 9 19 4 145 29 280 56 135 27
268 54 295 59 28 4 57 11 65 14 8 3 32 8 53 11 87 12 177 38 200 55 32 25 57
79 57 122 0 19 -9 77 -20 129 -11 52 -22 112 -25 134 -4 22 -8 48 -11 57 -6
19 -9 38 -25 123 -6 33 -20 75 -31 93 -25 41 -86 72 -135 71 -21 -1 -211 -37
-423 -80z m-861 -2359 l314 0 -184 -130 c-101 -72 -214 -152 -251 -177 -38
-25 -68 -51 -68 -57 0 -6 42 -138 94 -294 52 -155 89 -279 83 -275 -7 4 -106
75 -222 158 -115 83 -224 160 -241 172 l-31 22 -102 -72 c-56 -40 -168 -120
-249 -179 -81 -58 -148 -105 -149 -104 -2 2 40 130 92 286 51 156 92 287 89
291 -2 5 -115 86 -249 181 l-245 173 309 3 308 2 21 58 c11 31 50 149 87 262
36 113 71 218 77 233 10 25 19 2 107 -263 l95 -290 315 0z"/>
</g>
</svg>
